Coordinates
version=1
nRows=12
nColumns=24
inDegrees=yes

Units are S.I. units (second, meters, Newtons, ...)
Angles are in degrees.

endheader
time	pelvis_tilt	pelvis_list	pelvis_rotation	pelvis_tx	pelvis_ty	pelvis_tz	hip_flexion_r	hip_adduction_r	hip_rotation_r	knee_angle_r	ankle_angle_r	subtalar_angle_r	mtp_angle_r	hip_flexion_l	hip_adduction_l	hip_rotation_l	knee_angle_l	ankle_angle_l	subtalar_angle_l	mtp_angle_l	lumbar_extension	lumbar_bending	lumbar_rotation
      1.50450000	     -1.11013258	     -1.67966551	     -8.17491455	      0.96574760	      0.98979296	      0.30524036	    -20.12350751	      4.01937461	      9.27392282	    -10.70950919	     11.37420447	     -3.82482522	      8.06053115	     29.52472308	     -4.46906339	     -5.34734007	     -1.42718982	     14.40377234	     -8.58897038	     -1.11135986	     -0.21770377	     -1.52875007	      9.40778371
      1.50866667	     -1.11434959	     -1.59589681	     -8.27005767	      0.97193646	      0.98898691	      0.30480224	    -20.40056561	      3.80066729	      9.15335680	    -10.79235879	     11.13428382	     -3.63085947	      8.11734856	     29.54082535	     -4.36176461	     -5.19028075	     -2.01376343	     14.64142411	     -8.72404624	     -1.07846695	     -0.08829180	     -1.60464402	      9.51755691
      1.51283333	     -1.12850332	     -1.50735904	     -8.39333774	      0.97817285	      0.98818256	      0.30440431	    -20.64635229	      3.57102631	      9.05694359	    -10.91706550	     10.86645849	     -3.45507459	      8.15448788	     29.54785366	     -4.26252712	     -5.07395222	     -2.58317539	     14.85074239	     -8.88331121	     -1.05244020	      0.04777934	     -1.67997179	      9.60702720
      1.51700000	     -1.13928921	     -1.41020864	     -8.49399367	      0.98446737	      0.98736861	      0.30393506	    -20.89540309	      3.33561801	      8.93116281	    -11.04065180	     10.59861079	     -3.26476692	      8.19676112	     29.54646559	     -4.13784602	     -4.95297416	     -3.14890803	     14.98769256	     -9.01547740	     -1.02408199	      0.17943945	     -1.75323397	      9.71732647
      1.52116667	     -1.14647737	     -1.30380949	     -8.60945628	      0.99081460	      0.98657494	      0.30347107	    -21.09934971	      3.07597174	      8.67189203	    -11.26543950	     10.45940344	     -2.80816410	      8.47496367	     29.51647230	     -4.00650654	     -4.83565259	     -3.68014428	     15.04350816	     -9.19348944	     -0.88161374	      0.35735107	     -1.85821411	     10.06693666
      1.52533333	     -1.16543035	     -1.20455655	     -8.69916573	      0.99722626	      0.98576598	      0.30297594	    -21.32376690	      2.84453700	      8.53013987	    -11.41932290	     10.11138302	     -2.66969229	      8.55065142	     29.49872745	     -3.87123542	     -4.72810995	     -4.20678598	     15.07355334	     -9.29431415	     -0.83222698	      0.53756935	     -1.94826123	     10.11084982
      1.52950000	     -1.18240350	     -1.07675445	     -8.80361322	      1.00366540	      0.98496788	      0.30245558	    -21.49626479	      2.56694529	      8.26540408	    -11.67975790	      9.92632592	     -2.25885888	      9.03253920	     29.45109367	     -3.70387217	     -4.58430221	     -4.67825917	     14.93590744	     -9.59023278	     -0.55092297	      0.70928755	     -2.05837222	     10.38548769
      1.53366667	     -1.20750323	     -0.95466544	     -8.88936425	      1.01019653	      0.98417808	      0.30193917	    -21.69591693	      2.31532419	      8.11759997	    -11.86304445	      9.51592834	     -2.15515658	      9.14386571	     29.41770278	     -3.54219485	     -4.52082249	     -5.16663494	     14.83159512	     -9.66159510	     -0.47602380	      0.92121674	     -2.16704856	     10.40283635
      1.53783333	     -1.22488974	     -0.80183016	     -8.98526745	      1.01672494	      0.98340349	      0.30137981	    -21.83972598	      2.01449789	      7.82768562	    -12.16966951	      9.29930412	     -1.75900631	      9.81534120	     29.35134303	     -3.33939887	     -4.38199487	     -5.58769633	     14.52764487	    -10.02419741	     -0.05115654	      1.10462641	     -2.31013385	     10.67490514
      1.54200000	     -1.24458658	     -0.66846527	     -9.04323701	      1.02331415	      0.98264496	      0.30079143	    -22.02658700	      1.75891317	      7.64334339	    -12.36726739	      8.73348385	     -1.73746167	     13.53005359	     29.30336072	     -3.14926754	     -4.32204866	     -6.03467672	     14.21308691	    -10.16484631	      2.35891221	      1.30987482	     -2.41008555	     10.67552821
      1.54616667	     -1.28005446	     -0.52376464	     -9.11727128	      1.02990702	      0.98189056	      0.30021803	    -22.14894620	      1.49063670	      7.43664868	    -12.67016989	      8.31539454	     -1.58463967	     13.54484018	     29.27764132	     -2.96287488	     -4.34776773	     -6.48860723	     13.84393737	    -10.19515594	      2.36557158	      1.52795665	     -2.54277106	     10.70972278
      1.55033333	     -1.30657233	     -0.33971031	     -9.19168736	      1.03653535	      0.98115882	      0.29960216	    -22.23797337	      1.16978839	      7.11839969	    -13.04953318	      8.01671099	     -1.23720068	     13.67149070	     29.22969552	     -2.72381630	     -4.29389829	     -6.90193690	     13.35442735	    -10.46437466	      2.43864269	      1.74351011	     -2.72020505	     10.87879520
